<?xml version="1.0"?>
<!--Icons from directory ""-->
<svg xmlns="http://www.w3.org/2000/svg" width="42" height="152" viewBox="0 0 42 152"><svg xmlns:xlink="http://www.w3.org/1999/xlink" height="38" width="38" version="1.1" viewBox="-10 -10 38 38" id="close" y="0"><title>close</title><desc>Created with Sketch.</desc><g id="close-Page-1" fill-rule="evenodd" fill="none"><g id="close-menu_icons" fill="#555" transform="translate(-224 -94)"><polygon id="close-close" points="239.24 94 232.98 100.26 226.9 94.185 224.18 96.898 230.26 102.98 224 109.24 226.77 112.01 233.03 105.75 239.11 111.83 241.83 109.11 235.75 103.03 242.01 96.771"/></g></g></svg><svg xmlns:xlink="http://www.w3.org/1999/xlink" height="38" width="38" version="1.1" viewBox="-10 -10 38 38" id="close_hover" y="38"><title>close_hover</title><desc>Created with Sketch.</desc><g id="close_hover-Page-1" fill-rule="evenodd" fill="none"><g id="close_hover-menu_icons" fill="#fff" transform="translate(-282 -94)"><polygon id="close_hover-close_hover" points="297.24 94 290.98 100.26 284.9 94.185 282.18 96.898 288.26 102.98 282 109.24 284.77 112.01 291.03 105.75 297.11 111.83 299.83 109.11 293.75 103.03 300.01 96.771"/></g></g></svg><svg xmlns:xlink="http://www.w3.org/1999/xlink" height="38" width="42" version="1.1" viewBox="-10 -10 42 38" id="menu" y="76"><title>menu</title><desc>Created with Sketch.</desc><g id="menu-Page-1" fill-rule="evenodd" fill="none"><g id="menu-menu_icons" fill="#555" transform="translate(-100 -94)"><path id="menu-menu" d="m100 98h22v-4h-22v4zm0 7h22v-4h-22v4zm0 7h22v-4h-22v4z"/></g></g></svg><svg xmlns:xlink="http://www.w3.org/1999/xlink" height="38" width="42" version="1.1" viewBox="-10 -10 42 38" id="menu_hover" y="114"><title>menu_hover</title><desc>Created with Sketch.</desc><g id="menu_hover-Page-1" fill-rule="evenodd" fill="none"><g id="menu_hover-menu_icons" fill="#fff" transform="translate(-162 -94)"><path id="menu_hover-menu_hover" d="m162 98h22v-4h-22v4zm0 7h22v-4h-22v4zm0 7h22v-4h-22v4z"/></g></g></svg></svg>
