<svg xmlns="http://www.w3.org/2000/svg" xml:space="preserve" viewBox="0 0 295 295">
  <path xmlns="http://www.w3.org/2000/svg" d="M280.98 118.48a49.65 49.65 0 0 1-18.58-44.85 36.85 36.85 0 0 0-10.6-30.43 36.85 36.85 0 0 0-30.44-10.6 49.65 49.65 0 0 1-44.84-18.58A36.84 36.84 0 0 0 147.5 0a36.85 36.85 0 0 0-29.02 14.02 49.66 49.66 0 0 1-44.84 18.57A36.84 36.84 0 0 0 43.2 43.2a36.85 36.85 0 0 0-10.6 30.43 49.65 49.65 0 0 1-18.58 44.85C5.1 125.55 0 136.13 0 147.5s5.1 21.95 14.02 29.02a49.65 49.65 0 0 1 18.57 44.84A36.85 36.85 0 0 0 43.2 251.8a36.85 36.85 0 0 0 30.43 10.6 49.65 49.65 0 0 1 44.85 18.58A36.85 36.85 0 0 0 147.5 295a36.85 36.85 0 0 0 29.02-14.02 49.66 49.66 0 0 1 44.84-18.58 36.85 36.85 0 0 0 30.44-10.6 36.85 36.85 0 0 0 10.6-30.44 49.65 49.65 0 0 1 18.58-44.84c8.9-7.07 14.02-17.65 14.02-29.02s-5.11-21.95-14.02-29.02z" data-original="#000000"/>
</svg>