<svg xmlns="http://www.w3.org/2000/svg" xml:space="preserve" viewBox="0 0 546.81 546.81">
  <path xmlns="http://www.w3.org/2000/svg" d="m537 259.89-49.16-29.7 33.81-46.42c9.17-11.95 4.48-23.1-10.47-24.92l-55.2-8.11 13.36-54.17c3.97-14.53-4.58-23.08-19.11-19.11L394.48 91.2l-8.92-56.73c-1.97-14.93-13.17-19.5-25.02-10.22l-44.77 33.3-28.85-47.75c-7.46-13.08-19.57-13.08-27.04 0l-29.7 49.15-46.42-33.8c-11.94-9.17-23.1-4.48-24.92 10.47l-8.1 55.2-54.17-13.37c-14.53-3.97-23.09 4.59-19.12 19.12l13.76 55.75-56.73 8.92c-14.93 1.96-19.51 13.17-10.22 25.02l33.3 44.76L9.8 259.9c-13.08 7.47-13.08 19.57 0 27.03l49.15 29.7-33.8 46.42c-9.17 11.95-4.48 23.1 10.47 24.92l55.2 8.11-13.37 54.17c-3.97 14.53 4.59 23.08 19.12 19.11l55.75-13.75 8.92 56.73c1.96 14.93 13.17 19.5 25.02 10.22l44.76-33.3L259.9 537c7.46 13.08 19.57 13.08 27.03 0l29.7-49.15 46.42 33.8c11.95 9.17 23.1 4.48 24.92-10.47l8.11-55.2 54.17 13.37c14.53 3.97 23.09-4.59 19.11-19.12l-13.75-55.75 56.73-8.92c14.93-1.96 19.5-13.17 10.22-25.02l-33.3-44.76L537 286.92c13.08-7.47 13.08-19.57 0-27.03z" data-original="#000000"/>
</svg>