<svg height="8" viewBox="0 0 265 265" width="8" xmlns="http://www.w3.org/2000/svg">
    <path fill="#FFF" fill-rule="evenodd" d="m137 0c-8.640626 0-16.863282 3.710938-22.585938 10.191406-5.71875 6.472656-8.375 15.105469-7.335938 23.425782l14.019532 128.125c.886718 8.113281 7.734375 14.257812 15.902344 14.257812 8.167968 0 15.015624-6.144531 15.902343-14.265625l13.984375-127.871094c1.074219-8.566406-1.582031-17.199219-7.304687-23.671875-5.71875-6.480468-13.941407-10.191406-22.582031-10.191406zm0 0"/>
    <path fill="#FFF" fill-rule="evenodd" d="m137 216c-13.230469 0-24 10.769531-24 24s10.769531 24 24 24c13.230468 0 24-10.769531 24-24s-10.769532-24-24-24zm0 0"/>
</svg>